<?xml version="1.0" encoding="UTF-8" standalone="no"?>
<svg
   width="187.59375pt"
   height="216.61328pt"
   viewBox="0 0 187.59375 216.61328"
   version="1.1"
   id="svg7609"
   xml:space="preserve"
   xmlns="http://www.w3.org/2000/svg"
   xmlns:svg="http://www.w3.org/2000/svg">
   <defs
     id="defs7603" />
   <path
     d="M 140.6953,27.074219 187.59374,0 v 54.152344 z m 0,0"
     id="path858"
     style="fill:#ffffff;fill-opacity:0.8" />
   <path
     d="m 187.59374,162.46094 -46.89844,27.07813 v -54.15626 z m 0,0"
     id="path831"
     style="fill:#ffffff;fill-opacity:0.65" />
   <path
     d="m 140.6953,135.38282 46.89844,-27.07422 v 54.15234 z m 0,0"
     id="path780"
     style="fill:#ffffff;fill-opacity:0.4" />
   <path
     d="M 46.89843,81.230469 0,108.3086 V 54.152344 Z m 0,0"
     id="path7734"
     style="fill:#ffffff;fill-opacity:0.70" />
   <path
     d="M 0,108.3086 46.89843,81.230469 v 54.152351 z m 0,0"
     id="path7740"
     style="fill:#ffffff;fill-opacity:0.4" />
   <path
     d="M 46.89843,135.38282 0,162.46094 V 108.3086 Z m 0,0"
     id="path7746"
     style="fill:#ffffff;fill-opacity:0.70" />
   <path
     d="m 0,162.46094 46.89843,-27.07813 v 54.15626 z m 0,0"
     id="path7752"
     style="fill:#ffffff;fill-opacity:0.75" />
   <path
     d="M 46.89843,27.074219 0,54.152344 V 0 Z m 0,0"
     id="path7758"
     style="fill:#ffffff;fill-opacity:0.4" />
   <path
     d="M 0,54.152344 46.89843,27.074219 v 54.15625 z m 0,0"
     id="path7764"
     style="fill:#ffffff;fill-opacity:0.85" />
   <path
     d="M 93.79687,54.152344 46.89843,27.074219 v 54.15625 z m 0,0"
     id="path7770"
     style="fill:#ffffff;fill-opacity:0.6" />
   <path
     d="M 46.89843,81.230469 93.79687,108.3086 V 54.152344 Z m 0,0"
     id="path7776"
     style="fill:#ffffff;fill-opacity:0.70" />
   <path
     d="M 93.79687,108.3086 46.89843,81.230469 v 54.152351 z m 0,0"
     id="path7782"
     style="fill:#ffffff;fill-opacity:0.6" />
   <path
     d="m 46.89843,135.38282 46.89844,27.07812 V 108.3086 Z m 0,0"
     id="path7788"
     style="fill:#ffffff;fill-opacity:0.8" />
   <path
     d="m 46.89843,189.53907 46.89844,27.07421 v -54.15234 z m 0,0"
     id="path7794"
     style="fill:#ffffff;fill-opacity:0.78" />
   <path
     d="M 93.79687,162.46094 46.89843,135.38281 v 54.15626 z m 0,0"
     id="path7800"
     style="fill:#ffffff;fill-opacity:0.50" />
   <path
     d="m 93.79687,162.46094 46.89844,27.07813 v -54.15626 z m 0,0"
     id="path7806"
     style="fill:#ffffff;fill-opacity:0.50" />
   <path
     d="M 140.6953,189.53907 93.79687,162.46094 v 54.15234 z m 0,0"
     id="path7812"
     style="fill:#ffffff;fill-opacity:0.90" />
   <path
     d="M 187.59374,54.15234 140.6953,81.23047 V 27.07422 Z m 0,0"
     id="path7710"
     style="fill:#ffffff;fill-opacity:1" />
</svg>
